<svg xmlns="http://www.w3.org/2000/svg" width="1200" height="720" viewBox="0 0 1200 720" fill="none">
  <rect width="1200" height="720" fill="#F5F7FB"/>
  <text x="56" y="72" fill="#111827" font-family="Arial, sans-serif" font-size="28" font-weight="700">UIDocument</text>

  <rect x="56" y="96" width="1088" height="568" rx="0" fill="#FFFFFF" stroke="#CBD5E1" stroke-width="2"/>

  <rect x="112" y="160" width="432" height="432" rx="0" fill="#F8FAFC" stroke="#CBD5E1" stroke-width="2"/>
  <text x="136" y="204" fill="#111827" font-family="Arial, sans-serif" font-size="22" font-weight="700">Image</text>
  <rect x="152" y="248" width="352" height="72" rx="0" fill="#E2E8F0"/>
  <rect x="152" y="344" width="120" height="120" rx="0" fill="#DBEAFE" stroke="#60A5FA" stroke-width="2"/>
  <text x="170" y="412" fill="#1D4ED8" font-family="Arial, sans-serif" font-size="20" font-weight="700">Image</text>
  <rect x="296" y="360" width="176" height="20" rx="0" fill="#CBD5E1"/>
  <rect x="296" y="392" width="136" height="20" rx="0" fill="#E2E8F0"/>
  <rect x="152" y="496" width="352" height="56" rx="0" fill="#E2E8F0"/>
  <text x="136" y="612" fill="#475569" font-family="Arial, sans-serif" font-size="20">이미지 요소가 독립적으로 추가된 상태</text>

  <rect x="656" y="160" width="432" height="432" rx="0" fill="#F8FAFC" stroke="#CBD5E1" stroke-width="2"/>
  <text x="680" y="204" fill="#111827" font-family="Arial, sans-serif" font-size="22" font-weight="700">backgroundImage</text>
  <rect x="696" y="248" width="352" height="272" rx="0" fill="#C7D2FE" stroke="#818CF8" stroke-width="2"/>
  <rect x="736" y="280" width="192" height="28" rx="0" fill="#EEF2FF" fill-opacity="0.9"/>
  <rect x="736" y="324" width="144" height="24" rx="0" fill="#EEF2FF" fill-opacity="0.75"/>
  <rect x="736" y="472" width="208" height="24" rx="0" fill="#EEF2FF" fill-opacity="0.85"/>
  <text x="680" y="612" fill="#475569" font-family="Arial, sans-serif" font-size="20">패널 배경으로 이미지가 적용된 상태</text>
</svg>
