<svg width="1280" height="720" viewBox="0 0 1280 720" fill="none" xmlns="http://www.w3.org/2000/svg">
  <defs>
    <linearGradient id="skill" x1="250" y1="470" x2="390" y2="610" gradientUnits="userSpaceOnUse">
      <stop stop-color="#324564"/>
      <stop offset="1" stop-color="#151C2A"/>
    </linearGradient>
    <linearGradient id="card" x1="870" y1="180" x2="1030" y2="458" gradientUnits="userSpaceOnUse">
      <stop stop-color="#3B2B2A"/>
      <stop offset="1" stop-color="#151014"/>
    </linearGradient>
    <linearGradient id="portrait" x1="894" y1="206" x2="1006" y2="332" gradientUnits="userSpaceOnUse">
      <stop stop-color="#734347"/>
      <stop offset="1" stop-color="#241921"/>
    </linearGradient>
    <linearGradient id="arrow" x1="390" y1="500" x2="870" y2="286" gradientUnits="userSpaceOnUse">
      <stop stop-color="#FFE9A6"/>
      <stop offset="0.5" stop-color="#FFC960"/>
      <stop offset="1" stop-color="#FF8A4A"/>
    </linearGradient>
    <filter id="shadow" x="-20%" y="-20%" width="140%" height="140%" color-interpolation-filters="sRGB">
      <feDropShadow dx="0" dy="14" stdDeviation="14" flood-color="#000000" flood-opacity="0.32"/>
    </filter>
    <filter id="glow" x="-35%" y="-35%" width="170%" height="170%" color-interpolation-filters="sRGB">
      <feDropShadow dx="0" dy="0" stdDeviation="9" flood-color="#FFC86B" flood-opacity="0.72"/>
    </filter>
    <marker id="arrowHead" markerWidth="30" markerHeight="30" refX="24" refY="15" orient="auto" markerUnits="strokeWidth">
      <path d="M2 2L28 15L2 28L8 15L2 2Z" fill="#FFB45B" stroke="#FFE7A8" stroke-width="1.5"/>
    </marker>
  </defs>

  <g filter="url(#shadow)">
    <rect x="250" y="470" width="140" height="140" rx="22" fill="url(#skill)" stroke="#8AA5D8" stroke-width="3"/>
    <path d="M299 552C315 522 339 523 333 555C327 589 308 589 299 552Z" fill="#F2D27D"/>
    <circle cx="317" cy="545" r="12" fill="#FFF1B5"/>
  </g>

  <path d="M390 500C520 270 700 210 870 286" stroke="#32220D" stroke-width="16" stroke-linecap="round" opacity="0.36"/>
  <path d="M390 500C520 270 700 210 870 286" stroke="url(#arrow)" stroke-width="10" stroke-linecap="round" marker-end="url(#arrowHead)" filter="url(#glow)"/>

  <g filter="url(#shadow)">
    <rect x="870" y="180" width="160" height="278" rx="18" fill="url(#card)" stroke="#D76058" stroke-width="4"/>
    <rect x="894" y="208" width="112" height="126" rx="14" fill="url(#portrait)" stroke="#F09A78" stroke-width="2"/>
    <path d="M940 289C930 274 936 246 954 238C974 247 982 275 969 291C961 303 948 302 940 289Z" fill="#C6554C"/>
    <path d="M924 244L944 252L933 268Z" fill="#F2C08B"/>
    <path d="M984 244L964 252L975 268Z" fill="#F2C08B"/>
  </g>
</svg>
